<?xml version="1.0" encoding="UTF-8" standalone="no"?>
<!DOCTYPE svg PUBLIC "-//W3C//DTD SVG 1.1//EN" "http://www.w3.org/Graphics/SVG/1.1/DTD/svg11.dtd">
<svg xmlns="http://www.w3.org/2000/svg" version="1.1" viewBox="0.00 0.00 32.00 32.00">
<path fill="none" stroke-width="1.00" stroke="#68eeee" vector-effect="non-scaling-stroke" d="
  M 10.90 20.51
  L 9.23 27.19
  A 1.04 1.04 0.0 0 1 8.13 27.97
  Q 6.52 27.82 6.88 26.28
  Q 9.12 16.75 11.49 7.25
  C 12.35 3.84 16.76 3.01 19.03 4.98
  Q 20.20 6.00 20.97 9.12
  Q 23.16 17.94 25.35 26.67
  A 0.93 0.92 80.3 0 1 24.54 27.82
  L 23.62 27.91
  Q 22.98 27.97 22.82 27.35
  L 21.10 20.51
  Q 20.97 20.00 20.45 20.00
  L 11.55 20.00
  A 0.67 0.66 6.5 0 0 10.90 20.51
  Z
  M 12.48 17.36
  L 19.52 17.36
  A 0.23 0.23 0.0 0 0 19.75 17.13
  L 19.75 16.91
  A 10.25 3.67 -90.0 0 0 16.08 6.66
  L 15.92 6.66
  A 10.25 3.67 90.0 0 0 12.25 16.91
  L 12.25 17.13
  A 0.23 0.23 0.0 0 0 12.48 17.36
  Z"
/>
</svg>
