<svg xmlns="http://www.w3.org/2000/svg" version="1.1" xmlns:xlink="http://www.w3.org/1999/xlink" xmlns:svgjs="http://svgjs.com/svgjs" width="944" height="938"><svg xmlns="http://www.w3.org/2000/svg" version="1.1" viewBox="0.00 0.00 944.00 938.00">
<g stroke-width="2.00" fill="none" stroke-linecap="butt">
<path stroke="#99999e" vector-effect="non-scaling-stroke" d="
  M 9.86 6.52
  A 1.12 1.12 0.0 0 0 8.74 7.64
  L 8.74 933.41
  A 1.12 1.12 0.0 0 0 9.86 934.53
  L 935.66 934.53
  A 1.12 1.12 0.0 0 0 936.78 933.41
  L 936.78 7.64
  A 1.12 1.12 0.0 0 0 935.66 6.52
  L 9.86 6.52"></path>
<path stroke="#928282" vector-effect="non-scaling-stroke" d="
  M 384.45 589.53
  L 546.71 589.52
  A 1.40 1.39 80.2 0 1 548.02 590.45
  L 584.57 693.66
  A 1.30 1.29 -10.0 0 0 585.79 694.51
  Q 628.88 694.54 672.29 694.51
  Q 672.50 694.51 672.69 694.41
  Q 672.91 694.30 673.00 694.25
  A 1.01 1.01 0.0 0 0 673.50 693.00
  L 513.10 243.34
  Q 512.81 242.52 511.93 242.52
  L 418.97 242.52
  A 1.87 1.86 9.7 0 0 417.21 243.76
  L 256.63 692.97
  A 1.16 1.15 9.8 0 0 257.72 694.51
  L 345.00 694.52
  A 1.52 1.46 9.6 0 0 346.41 693.56
  L 383.75 590.02
  A 0.75 0.74 -79.9 0 1 384.45 589.53"></path>
<path stroke="#928282" vector-effect="non-scaling-stroke" d="
  M 404.59 508.67
  A 1.33 1.33 0.0 0 0 405.85 510.42
  L 524.10 510.63
  A 1.33 1.33 0.0 0 0 525.37 508.88
  L 466.55 331.92
  A 1.33 1.33 0.0 0 0 464.02 331.91
  L 404.59 508.67"></path>
</g>
<path fill="#33323d" d="
  M 0.00 0.00
  L 944.00 0.00
  L 944.00 938.00
  L 0.00 938.00
  L 0.00 0.00
  Z
  M 9.86 6.52
  A 1.12 1.12 0.0 0 0 8.74 7.64
  L 8.74 933.41
  A 1.12 1.12 0.0 0 0 9.86 934.53
  L 935.66 934.53
  A 1.12 1.12 0.0 0 0 936.78 933.41
  L 936.78 7.64
  A 1.12 1.12 0.0 0 0 935.66 6.52
  L 9.86 6.52
  Z"></path>
<path fill="#ffffff" d="
  M 9.86 6.52
  L 935.66 6.52
  A 1.12 1.12 0.0 0 1 936.78 7.64
  L 936.78 933.41
  A 1.12 1.12 0.0 0 1 935.66 934.53
  L 9.86 934.53
  A 1.12 1.12 0.0 0 1 8.74 933.41
  L 8.74 7.64
  A 1.12 1.12 0.0 0 1 9.86 6.52
  Z
  M 384.45 589.53
  L 546.71 589.52
  A 1.40 1.39 80.2 0 1 548.02 590.45
  L 584.57 693.66
  A 1.30 1.29 -10.0 0 0 585.79 694.51
  Q 628.88 694.54 672.29 694.51
  Q 672.50 694.51 672.69 694.41
  Q 672.91 694.30 673.00 694.25
  A 1.01 1.01 0.0 0 0 673.50 693.00
  L 513.10 243.34
  Q 512.81 242.52 511.93 242.52
  L 418.97 242.52
  A 1.87 1.86 9.7 0 0 417.21 243.76
  L 256.63 692.97
  A 1.16 1.15 9.8 0 0 257.72 694.51
  L 345.00 694.52
  A 1.52 1.46 9.6 0 0 346.41 693.56
  L 383.75 590.02
  A 0.75 0.74 -79.9 0 1 384.45 589.53
  Z"></path>
<path fill="#250404" d="
  M 383.75 590.02
  L 346.41 693.56
  A 1.52 1.46 9.6 0 1 345.00 694.52
  L 257.72 694.51
  A 1.16 1.15 9.8 0 1 256.63 692.97
  L 417.21 243.76
  A 1.87 1.86 9.7 0 1 418.97 242.52
  L 511.93 242.52
  Q 512.81 242.52 513.10 243.34
  L 673.50 693.00
  A 1.01 1.01 0.0 0 1 673.00 694.25
  Q 672.91 694.30 672.69 694.41
  Q 672.50 694.51 672.29 694.51
  Q 628.88 694.54 585.79 694.51
  A 1.30 1.29 -10.0 0 1 584.57 693.66
  L 548.02 590.45
  A 1.40 1.39 80.2 0 0 546.71 589.52
  L 384.45 589.53
  A 0.75 0.74 -79.9 0 0 383.75 590.02
  Z
  M 404.59 508.67
  A 1.33 1.33 0.0 0 0 405.85 510.42
  L 524.10 510.63
  A 1.33 1.33 0.0 0 0 525.37 508.88
  L 466.55 331.92
  A 1.33 1.33 0.0 0 0 464.02 331.91
  L 404.59 508.67
  Z"></path>
<path fill="#ffffff" d="
  M 404.59 508.67
  L 464.02 331.91
  A 1.33 1.33 0.0 0 1 466.55 331.92
  L 525.37 508.88
  A 1.33 1.33 0.0 0 1 524.10 510.63
  L 405.85 510.42
  A 1.33 1.33 0.0 0 1 404.59 508.67
  Z"></path>
</svg><style>@media (prefers-color-scheme: light) { :root { filter: none; } }
@media (prefers-color-scheme: dark) { :root { filter: invert(100%); } }
</style></svg>